<svg version="1.2" xmlns="http://www.w3.org/2000/svg" viewBox="0 0 22 20" width="22" height="20"><style>.s0{fill:#29282d}</style><path class="s0" d="m17.4 20c-1.5 0-2.7-1.2-2.7-2.7c0-1.5 1.2-2.8 2.7-2.8c1.5 0 2.8 1.3 2.8 2.8c0 1.5-1.3 2.7-2.8 2.7zm0-3.8c-0.6 0-1.1 0.5-1.1 1.1c0 0.6 0.5 1.1 1.1 1.1c0.6 0 1.1-0.5 1.1-1.1c0-0.6-0.5-1.1-1.1-1.1zm1.8-2.8h-12.8c-0.4 0-0.7-0.3-0.8-0.7l-2.7-11.1h-2.1c-0.4 0-0.8-0.3-0.8-0.8c0-0.4 0.4-0.8 0.8-0.8h2.8c0.3 0 0.7 0.3 0.8 0.6l0.7 3.1h16.1c0.2 0 0.5 0.1 0.6 0.3c0.2 0.2 0.3 0.5 0.2 0.7l-2 8.1c-0.1 0.3-0.4 0.6-0.8 0.6zm-12.2-1.7h11.5l1.6-6.4h-14.6zm0.4 8.3c-1.5 0-2.7-1.2-2.7-2.7c0-1.5 1.2-2.8 2.7-2.8c1.5 0 2.8 1.3 2.8 2.8c0 1.5-1.3 2.7-2.8 2.7zm0-3.8c-0.6 0-1.1 0.5-1.1 1.1c0 0.6 0.5 1.1 1.1 1.1c0.6 0 1.1-0.5 1.1-1.1c0-0.6-0.5-1.1-1.1-1.1z" /></svg>