<?xml version="1.0" encoding="UTF-8"?>
<svg xmlns="http://www.w3.org/2000/svg" xmlns:xlink="http://www.w3.org/1999/xlink" width="14px" height="16px" viewBox="0 0 14 16" version="1.1">
<g id="surface1">
<path style=" stroke:none;fill-rule:nonzero;fill:rgb(0%,0%,0%);fill-opacity:1;" d="M 13 1 L 0.996094 1 C 0.445312 1 0 1.453125 0 2.007812 L 0 13.992188 C 0 14.546875 0.445312 15 0.996094 15 L 13 15 C 13.550781 15 14 14.546875 14 13.992188 L 14 2.007812 C 14 1.453125 13.550781 1 13 1 Z M 4.230469 13 L 2.15625 13 L 2.15625 6.320312 L 4.234375 6.320312 L 4.234375 13 Z M 3.195312 5.40625 C 2.527344 5.40625 1.992188 4.867188 1.992188 4.203125 C 1.992188 3.539062 2.527344 3 3.195312 3 C 3.855469 3 4.398438 3.539062 4.398438 4.203125 C 4.398438 4.867188 3.859375 5.40625 3.195312 5.40625 Z M 12.007812 13 L 9.933594 13 L 9.933594 9.75 C 9.933594 8.976562 9.917969 7.976562 8.855469 7.976562 C 7.773438 7.976562 7.609375 8.820312 7.609375 9.695312 L 7.609375 13 L 5.535156 13 L 5.535156 6.320312 L 7.523438 6.320312 L 7.523438 7.230469 L 7.554688 7.230469 C 7.832031 6.707031 8.507812 6.152344 9.519531 6.152344 C 11.617188 6.152344 12.007812 7.539062 12.007812 9.335938 Z M 12.007812 13 "/>
</g>
</svg>
