<svg version="1.2" xmlns="http://www.w3.org/2000/svg" viewBox="0 0 130 130" width="130" height="130"><style>.s0{opacity: .2;fill:#fe3e57}.s1{opacity: .6;fill:#fe3e57}.s2{fill:#fe3e57}.s3{fill:#ffffff}</style><path class="s0" d="m65 0c35.9 0 65 29.1 65 65c0 35.9-29.1 65-65 65c-35.9 0-65-29.1-65-65c0-35.9 29.1-65 65-65z" /><path class="s1" d="m65 10c30.4 0 55 24.6 55 55c0 30.4-24.6 55-55 55c-30.4 0-55-24.6-55-55c0-30.4 24.6-55 55-55z" /><path class="s2" d="m65 20c24.9 0 45 20.1 45 45c0 24.9-20.1 45-45 45c-24.9 0-45-20.1-45-45c0-24.9 20.1-45 45-45z" /><path class="s3" d="m71.8 63.1c0.8 0.5 1.2 1.2 1.2 1.9c0 0.7-0.4 1.4-1.2 1.9l-11.8 7.6c-0.6 0.3-1.1 0.5-1.6 0.5c-0.8 0-1.4-0.7-1.4-1.8v-16.4c0-1.1 0.6-1.8 1.4-1.8c0.5 0 1 0.2 1.6 0.5l11.8 7.6" /></svg>